<svg width="195" height="62" viewBox="0 0 195 62" fill="none" xmlns="http://www.w3.org/2000/svg">
<path d="M147.081 37.5C145.664 38.9167 144.014 39.625 142.131 39.625C140.964 39.625 139.864 39.3917 138.831 38.925C137.815 38.4584 136.923 37.8167 136.156 37C135.406 36.1834 134.806 35.225 134.356 34.125C133.923 33.0084 133.706 31.8084 133.706 30.525C133.706 29.3084 133.923 28.1667 134.356 27.1C134.806 26.0167 135.415 25.075 136.181 24.275C136.965 23.4584 137.881 22.8167 138.931 22.35C139.981 21.8667 141.123 21.625 142.356 21.625C144.023 21.625 145.447 21.975 146.631 22.675C147.831 23.375 148.731 24.3167 149.331 25.5L146.756 27.4C146.306 26.5167 145.672 25.8417 144.856 25.375C144.056 24.9084 143.181 24.675 142.231 24.675C141.481 24.675 140.789 24.8334 140.156 25.15C139.539 25.4667 139.006 25.9 138.556 26.45C138.123 27 137.781 27.6334 137.531 28.35C137.298 29.0667 137.181 29.825 137.181 30.625C137.181 31.4584 137.315 32.2417 137.581 32.975C137.848 33.6917 138.214 34.3167 138.681 34.85C139.148 35.3834 139.698 35.8084 140.331 36.125C140.981 36.425 141.681 36.575 142.431 36.575C144.148 36.575 145.697 35.7667 147.081 34.15V32.9H143.506V30.375H149.931V39.5H147.081V37.5Z" fill="#464646"/>
<path d="M158.62 39.75C157.57 39.75 156.62 39.575 155.77 39.225C154.92 38.8584 154.195 38.3667 153.596 37.75C152.996 37.1334 152.529 36.4167 152.196 35.6C151.879 34.7834 151.721 33.925 151.721 33.025C151.721 32.0917 151.879 31.2167 152.196 30.4C152.512 29.5667 152.971 28.8417 153.571 28.225C154.171 27.5917 154.895 27.0917 155.745 26.725C156.612 26.3584 157.579 26.175 158.645 26.175C159.712 26.175 160.662 26.3584 161.495 26.725C162.345 27.0917 163.062 27.5834 163.645 28.2C164.245 28.8167 164.695 29.5334 164.995 30.35C165.312 31.1667 165.47 32.0167 165.47 32.9C165.47 33.1167 165.462 33.325 165.445 33.525C165.445 33.725 165.428 33.8917 165.395 34.025H155.27C155.32 34.5417 155.445 35 155.645 35.4C155.845 35.8 156.104 36.1417 156.42 36.425C156.737 36.7084 157.095 36.925 157.495 37.075C157.895 37.225 158.312 37.3 158.745 37.3C159.412 37.3 160.037 37.1417 160.62 36.825C161.22 36.4917 161.628 36.0584 161.845 35.525L164.72 36.325C164.237 37.325 163.462 38.15 162.395 38.8C161.345 39.4334 160.087 39.75 158.62 39.75ZM162.02 31.85C161.937 30.8667 161.57 30.0834 160.92 29.5C160.287 28.9 159.512 28.6 158.595 28.6C158.145 28.6 157.72 28.6834 157.32 28.85C156.937 29 156.595 29.2167 156.295 29.5C155.995 29.7834 155.745 30.125 155.545 30.525C155.362 30.925 155.254 31.3667 155.22 31.85H162.02Z" fill="#464646"/>
<path d="M173.585 39.75C172.535 39.75 171.585 39.575 170.735 39.225C169.885 38.8584 169.16 38.3667 168.561 37.75C167.961 37.1334 167.494 36.4167 167.161 35.6C166.844 34.7834 166.686 33.925 166.686 33.025C166.686 32.0917 166.844 31.2167 167.161 30.4C167.477 29.5667 167.936 28.8417 168.536 28.225C169.135 27.5917 169.86 27.0917 170.71 26.725C171.577 26.3584 172.544 26.175 173.61 26.175C174.677 26.175 175.627 26.3584 176.46 26.725C177.31 27.0917 178.027 27.5834 178.61 28.2C179.21 28.8167 179.66 29.5334 179.96 30.35C180.277 31.1667 180.435 32.0167 180.435 32.9C180.435 33.1167 180.427 33.325 180.41 33.525C180.41 33.725 180.393 33.8917 180.36 34.025H170.235C170.285 34.5417 170.41 35 170.61 35.4C170.81 35.8 171.069 36.1417 171.385 36.425C171.702 36.7084 172.06 36.925 172.46 37.075C172.86 37.225 173.277 37.3 173.71 37.3C174.377 37.3 175.002 37.1417 175.585 36.825C176.185 36.4917 176.593 36.0584 176.81 35.525L179.685 36.325C179.202 37.325 178.427 38.15 177.36 38.8C176.31 39.4334 175.052 39.75 173.585 39.75ZM176.985 31.85C176.902 30.8667 176.535 30.0834 175.885 29.5C175.252 28.9 174.477 28.6 173.56 28.6C173.11 28.6 172.685 28.6834 172.285 28.85C171.902 29 171.56 29.2167 171.26 29.5C170.96 29.7834 170.71 30.125 170.51 30.525C170.327 30.925 170.219 31.3667 170.185 31.85H176.985Z" fill="#464646"/>
<path d="M191.425 39.5L187.625 33.825L185.825 35.6V39.5H182.476V21.25H185.825V32.325L191.075 26.425H194.65L189.775 31.975L195 39.5H191.425Z" fill="#464646"/>
<path d="M75.7718 21.75H78.8216L85.5713 39.5H82.0215L80.3716 35.075H74.1719L72.547 39.5H68.9972L75.7718 21.75ZM79.7466 32.65L77.2967 25.675L74.7469 32.65H79.7466Z" fill="#F2BE22"/>
<path d="M87.168 21.25H90.5179V35.3C90.5179 35.7834 90.6345 36.1584 90.8678 36.425C91.1012 36.6917 91.4345 36.825 91.8678 36.825C92.0678 36.825 92.2844 36.7917 92.5177 36.725C92.7677 36.6584 93.001 36.575 93.2177 36.475L93.6677 39.025C93.2177 39.2417 92.6927 39.4084 92.0928 39.525C91.4928 39.6417 90.9512 39.7 90.4679 39.7C89.4179 39.7 88.6013 39.425 88.018 38.875C87.4514 38.3084 87.168 37.5084 87.168 36.475V21.25Z" fill="#F2BE22"/>
<path d="M99.1269 39.75C97.777 39.75 96.7521 39.3167 96.0521 38.45C95.3522 37.5834 95.0022 36.3 95.0022 34.6V26.4H98.352V33.875C98.352 35.8917 99.0769 36.9 100.527 36.9C101.177 36.9 101.802 36.7084 102.402 36.325C103.018 35.925 103.518 35.325 103.902 34.525V26.4H107.251V35.65C107.251 36 107.31 36.25 107.426 36.4C107.56 36.55 107.768 36.6334 108.051 36.65V39.5C107.718 39.5667 107.435 39.6084 107.201 39.625C106.985 39.6417 106.785 39.65 106.602 39.65C106.002 39.65 105.51 39.5167 105.127 39.25C104.76 38.9667 104.543 38.5834 104.477 38.1L104.402 37.05C103.818 37.95 103.068 38.625 102.152 39.075C101.235 39.525 100.227 39.75 99.1269 39.75Z" fill="#F2BE22"/>
<path d="M118.38 29.3C117.363 29.3167 116.455 29.5167 115.655 29.9C114.855 30.2667 114.28 30.825 113.93 31.575V39.5H110.58V26.4H113.655V29.2C113.889 28.75 114.164 28.35 114.48 28C114.797 27.6334 115.138 27.3167 115.505 27.05C115.872 26.7834 116.238 26.5834 116.605 26.45C116.988 26.3 117.355 26.225 117.705 26.225C117.888 26.225 118.022 26.225 118.105 26.225C118.205 26.225 118.297 26.2334 118.38 26.25V29.3Z" fill="#F2BE22"/>
<path d="M123.652 39.75C123.018 39.75 122.427 39.65 121.877 39.45C121.327 39.2334 120.852 38.9417 120.452 38.575C120.052 38.1917 119.735 37.75 119.502 37.25C119.285 36.75 119.177 36.2 119.177 35.6C119.177 34.9834 119.31 34.4167 119.577 33.9C119.86 33.3667 120.244 32.9167 120.727 32.55C121.227 32.1834 121.818 31.9 122.502 31.7C123.185 31.4834 123.935 31.375 124.752 31.375C125.335 31.375 125.902 31.425 126.452 31.525C127.018 31.625 127.518 31.7667 127.951 31.95V31.2C127.951 30.3334 127.701 29.6667 127.202 29.2C126.718 28.7334 125.993 28.5 125.027 28.5C124.327 28.5 123.643 28.625 122.977 28.875C122.31 29.125 121.627 29.4917 120.927 29.975L119.902 27.85C121.585 26.7334 123.402 26.175 125.352 26.175C127.235 26.175 128.693 26.6417 129.726 27.575C130.776 28.4917 131.301 29.825 131.301 31.575V35.65C131.301 36 131.36 36.25 131.476 36.4C131.61 36.55 131.818 36.6334 132.101 36.65V39.5C131.535 39.6167 131.043 39.675 130.626 39.675C129.993 39.675 129.501 39.5334 129.151 39.25C128.818 38.9667 128.61 38.5917 128.526 38.125L128.451 37.4C127.868 38.1667 127.16 38.75 126.327 39.15C125.493 39.55 124.602 39.75 123.652 39.75ZM124.602 37.3C125.168 37.3 125.702 37.2 126.202 37C126.718 36.8 127.118 36.5334 127.402 36.2C127.768 35.9167 127.951 35.6 127.951 35.25V33.75C127.551 33.6 127.118 33.4834 126.652 33.4C126.185 33.3 125.735 33.25 125.302 33.25C124.435 33.25 123.727 33.45 123.177 33.85C122.627 34.2334 122.352 34.725 122.352 35.325C122.352 35.8917 122.568 36.3667 123.002 36.75C123.435 37.1167 123.968 37.3 124.602 37.3Z" fill="#F2BE22"/>
<path d="M0 30.6383C-5.87054e-08 34.6618 0.775973 38.6459 2.28361 42.3631C3.79125 46.0803 6.00104 49.4578 8.7868 52.3028C11.5726 55.1479 14.8797 57.4047 18.5195 58.9444C22.1593 60.4841 26.0603 61.2766 30 61.2766C33.9397 61.2766 37.8407 60.4841 41.4805 58.9444C45.1203 57.4047 48.4274 55.1479 51.2132 52.3028C53.999 49.4578 56.2087 46.0803 57.7164 42.3631C59.224 38.6459 60 34.6618 60 30.6383C60 26.6148 59.224 22.6307 57.7164 18.9135C56.2087 15.1963 53.999 11.8188 51.2132 8.97375C48.4274 6.12872 45.1203 3.87192 41.4805 2.3322C37.8407 0.792483 33.9397 0 30 0C26.0603 0 22.1593 0.792483 18.5195 2.3322C14.8797 3.87192 11.5726 6.12872 8.7868 8.97375C6.00104 11.8188 3.79125 15.1963 2.28361 18.9135C0.775973 22.6307 -5.87054e-08 26.6148 0 30.6383Z" fill="#FFFAD7"/>
<path d="M43.2001 42.8936C41.6 42.8936 40 42.0766 38.8 40.8511L34.4001 35.1319H25.2L22.8 39.217C21.6 41.2596 19.6 42.8936 17.2 42.8936C13.6 42.8936 10.8 40.034 10.8 36.3574V35.5404V34.7234L12.4 24.1021C12.8 19.6085 16 16.3404 20.4 16.3404C22.4 16.3404 24.8 17.1574 26 18.7915C27.6 18.7915 31.6 18.383 34 18.7915C35.6 17.1574 37.6 16.7489 39.6 16.7489C42.8 16.7489 45.6 18.7915 46.8 22.0596V22.8766L49.2001 34.3149C49.2001 34.7234 49.6 35.5404 49.6 36.3574C49.6 39.6255 46.8 42.8936 43.2001 42.8936Z" fill="#F2BE22"/>
<path d="M42.8 27.3702C42 27.3702 41.6 26.5532 41.6 26.1447C41.6 25.7362 42 24.9192 42.8 24.9192C43.6 24.9192 44 25.7362 44 26.1447C44 26.5532 43.6 27.3702 42.8 27.3702ZM36 27.3702C35.2 27.3702 34.8 26.5532 34.8 26.1447C34.8 25.7362 35.2 24.9192 36 24.9192C36.8 24.9192 37.2 25.7362 37.2 26.1447C37.2 26.5532 36.8 27.3702 36 27.3702ZM39.2 31.0468C38.8 31.0468 38 30.6383 38 29.8213C38 29.0043 38.4 28.5957 39.2 28.5957C40 28.5957 40.4 29.4128 40.4 29.8213C40.4 30.2298 40 31.0468 39.2 31.0468ZM39.2 23.6936C38.8 23.6936 38 23.2851 38 22.4681C38 21.6511 38.4 21.2426 39.2 21.2426C40 21.2426 40.4 22.0596 40.4 22.4681C40.4 22.8766 40 23.6936 39.2 23.6936ZM19.6 24.5106H16.4V26.5532H19.6V29.8213H21.6V26.5532H24.8V24.5106H21.6V21.2426H19.6V24.5106Z" fill="white"/>
</svg>
